<svg width="184" height="71" xmlns="http://www.w3.org/2000/svg" xmlns:xlink="http://www.w3.org/1999/xlink" overflow="hidden"><defs><clipPath id="clip0"><rect x="189" y="509" width="184" height="71"/></clipPath><clipPath id="clip1"><rect x="189" y="510" width="183" height="70"/></clipPath><clipPath id="clip2"><rect x="189" y="510" width="183" height="65"/></clipPath><clipPath id="clip3"><rect x="189" y="510" width="520" height="65"/></clipPath></defs><g clip-path="url(#clip0)" transform="translate(-189 -509)"><g clip-path="url(#clip1)"><g clip-path="url(#clip2)"><g clip-path="url(#clip3)"><path d="M79.3378 40.4962C80.2833 41.5992 81.4651 42.5446 82.962 43.2931 84.4983 44.081 86.0741 44.4749 87.571 44.4749 88.2801 44.4749 88.9498 44.3961 89.5801 44.2385 90.2497 44.081 90.8406 43.8446 91.3134 43.5294 91.8255 43.1749 92.2194 42.7416 92.5345 42.1901 92.8497 41.6386 92.9679 40.9689 92.9679 40.181 92.9679 39.4326 92.7709 38.8023 92.4164 38.2508 92.0618 37.7387 91.5103 37.2659 90.8406 36.8326 90.171 36.3993 89.3437 36.0447 88.3195 35.6902 87.3346 35.3357 86.1922 34.9811 84.9711 34.5872 83.7499 34.1933 82.5681 33.7206 81.4257 33.2084 80.2833 32.6963 79.259 31.9872 78.353 31.16 77.447 30.3327 76.7379 29.3085 76.1864 28.1661 75.6349 26.9843 75.3591 25.5268 75.3591 23.8329 75.3591 21.745 75.7924 19.9723 76.6197 18.4754 77.447 16.9785 78.5894 15.7573 79.9681 14.8118 81.3469 13.8664 82.9226 13.1573 84.6559 12.724 86.3892 12.2907 88.1619 12.0543 89.9346 12.0543 92.0618 12.0543 94.2678 12.4482 96.4739 13.2361 98.6405 13.9846 100.531 15.127 102.186 16.5845L96.592 22.4935C95.8042 21.5481 94.78 20.7602 93.5588 20.2087 92.2588 19.6178 90.9982 19.3027 89.8164 19.3027 89.1861 19.3027 88.5558 19.342 87.9255 19.4602 87.2953 19.5784 86.7044 19.7754 86.1529 20.0905 85.6407 20.4057 85.2074 20.839 84.8529 21.3117 84.4983 21.8238 84.3014 22.4935 84.3014 23.2814 84.3014 23.951 84.4589 24.5419 84.7347 24.9753 85.0105 25.4086 85.4438 25.8419 85.9559 26.1571 86.468 26.4722 87.0983 26.7874 87.8468 27.0631 88.5952 27.3389 89.3831 27.6146 90.2891 27.8904 91.5497 28.3237 92.9285 28.7964 94.3072 29.3085 95.686 29.8206 96.9466 30.4903 98.089 31.357 99.2314 32.1842 100.177 33.2478 100.886 34.5084 101.634 35.7296 101.989 37.3053 101.989 39.1962 101.989 41.3628 101.595 43.2143 100.807 44.79 100.019 46.3658 98.9556 47.6657 97.6163 48.69 96.2769 49.7142 94.7406 50.4626 93.0073 50.9748 91.274 51.4869 89.4619 51.7232 87.6104 51.7232 84.9317 51.7232 82.2923 51.2505 79.7712 50.3051 77.3288 49.399 75.2409 48.0597 73.5864 46.4052L79.3378 40.4962Z" fill="#D9D9D9" transform="matrix(1 0 -0 1.00424 189 510.072)"/><path d="M125.546 11.9361C122.67 11.9361 119.952 12.4088 117.47 13.3149 114.989 14.2209 112.822 15.5603 110.971 17.2936 109.119 19.0269 107.662 21.1147 106.637 23.5571 105.613 25.9995 105.062 28.757 105.062 31.7903 105.062 34.7842 105.574 37.5023 106.598 39.9447 107.622 42.387 109.08 44.4749 110.892 46.2082 112.704 47.9415 114.91 49.3202 117.47 50.2657 119.992 51.2111 122.828 51.7232 125.822 51.7232 128.737 51.7232 131.455 51.4081 133.937 50.8172 136.379 50.2263 138.506 49.4384 140.358 48.493L140.358 28.56 123.498 28.56 127.594 35.6508 132.243 35.6508 132.243 42.8598 132.125 42.8992C131.297 43.2537 130.391 43.5294 129.407 43.687 128.422 43.8446 127.397 43.9234 126.294 43.9234 124.404 43.9234 122.71 43.6082 121.252 43.0173 119.795 42.4264 118.534 41.5598 117.549 40.4962 116.564 39.4326 115.777 38.1326 115.264 36.6356 114.752 35.1387 114.516 33.5236 114.516 31.7509 114.516 30.0176 114.792 28.4025 115.343 26.9449 115.895 25.4874 116.722 24.1874 117.707 23.1238 118.731 22.0602 119.952 21.1935 121.292 20.6026 122.67 20.0117 124.207 19.6966 125.822 19.6966 127.713 19.6966 129.407 20.0511 130.903 20.7208 132.322 21.3511 133.503 22.1784 134.37 23.1632L139.964 16.8209C138.388 15.3633 136.34 14.1815 133.858 13.2755 131.337 12.4088 128.54 11.9361 125.546 11.9361" fill="#D9D9D9" transform="matrix(1 0 -0 1.00424 189 510.072)"/><path d="M143.391 46.3658C145.046 48.0597 147.094 49.3596 149.576 50.2657 152.097 51.2111 154.736 51.6838 157.415 51.6838 159.267 51.6838 161.079 51.4475 162.812 50.9354 164.545 50.4233 166.082 49.6748 167.421 48.6506 168.76 47.6263 169.824 46.3264 170.612 44.7506 171.4 43.1749 171.794 41.284 171.794 39.1568 171.794 37.3053 171.439 35.7296 170.691 34.469 169.942 33.2084 168.997 32.1448 167.894 31.3176 166.751 30.4509 165.491 29.7812 164.112 29.2691 162.694 28.757 161.354 28.2843 160.094 27.851 159.227 27.5752 158.4 27.2995 157.651 27.0237 156.942 26.748 156.273 26.4328 155.761 26.1177 155.209 25.8025 154.815 25.3692 154.539 24.9359 154.264 24.4632 154.106 23.9117 154.106 23.242 154.106 22.4541 154.303 21.7844 154.658 21.2723 155.012 20.7602 155.445 20.3663 155.958 20.0511 156.47 19.736 157.061 19.539 157.73 19.4208 158.361 19.3027 158.991 19.2633 159.621 19.2633 160.803 19.2633 162.103 19.5784 163.363 20.1693 164.585 20.7208 165.609 21.5087 166.397 22.4541L171.991 16.5451C170.375 15.0876 168.445 13.9452 166.279 13.1967 164.073 12.4088 161.867 12.0149 159.739 12.0149 157.967 12.0149 156.194 12.2513 154.461 12.6846 152.727 13.1179 151.152 13.827 149.773 14.7724 148.394 15.7179 147.291 16.9391 146.424 18.436 145.597 19.8935 145.164 21.7056 145.164 23.7935 145.164 25.4874 145.44 26.9449 145.991 28.1267 146.543 29.3085 147.252 30.3327 148.158 31.1206 149.064 31.9479 150.088 32.6175 151.23 33.169 152.373 33.7206 153.594 34.1539 154.776 34.5478 156.036 34.9417 157.179 35.2963 158.124 35.6508 159.109 36.0054 159.976 36.3993 160.645 36.7932 161.315 37.2265 161.867 37.6993 162.221 38.2114 162.615 38.7235 162.773 39.3932 162.773 40.1416 162.773 40.9295 162.615 41.5992 162.339 42.1507 162.024 42.7022 161.63 43.1749 161.118 43.4901 160.606 43.8052 160.015 44.081 159.385 44.1991 158.715 44.3567 158.045 44.4355 157.376 44.4355 155.839 44.4355 154.303 44.0416 152.767 43.2537 151.309 42.5052 150.088 41.5598 149.143 40.4568L143.391 46.3658Z" fill="#D9D9D9" transform="matrix(1 0 -0 1.00424 189 510.072)"/><path d="M51.0141 38.0538 51.1323 38.0932 51.0141 38.0538Z" fill="#D9D9D9" transform="matrix(1 0 -0 1.00424 189 510.072)"/><path d="M48.1384 41.2446 48.3354 41.3628 48.1384 41.2446Z" fill="#D9D9D9" transform="matrix(1 0 -0 1.00424 189 510.072)"/><path d="M26.8267 0.393932 28.7176 12.2513C29.0722 12.2907 29.4267 12.3695 29.7812 12.4482L30.1752 15.9936C30.7267 15.9542 31.2782 15.9148 31.8297 15.9148L31.8297 12.9604 31.8297 0C30.1358 0 28.4419 0.11818 26.8267 0.393932" fill="#D9D9D9" transform="matrix(1 0 -0 1.00424 189 510.072)"/><path d="M27.6146 12.0937 27.6146 12.0937 25.2116 0.709077C23.5571 1.06362 21.9814 1.53633 20.4057 2.12723L24.1874 11.9755C24.5813 11.9755 24.9753 11.9755 25.3692 11.9755L26.9055 16.7421C27.4176 16.5845 27.9691 16.427 28.5207 16.3088L27.6146 12.0937Z" fill="#D9D9D9" transform="matrix(1 0 -0 1.00424 189 510.072)"/><path d="M23.0056 12.0149 23.0056 12.0149 18.8693 2.75752C17.333 3.42721 15.8754 4.21507 14.4967 5.12111L19.342 12.6058C19.736 12.4876 20.1693 12.4088 20.5632 12.3301L23.8723 18.0421C24.345 17.7663 24.8571 17.53 25.3692 17.2936L23.0056 12.0149Z" fill="#D9D9D9" transform="matrix(1 0 -0 1.00424 189 510.072)"/><path d="M18.0815 12.921 18.0815 12.921 13.1179 6.06655C11.7786 7.05138 10.518 8.11499 9.33618 9.29679L14.4179 14.3785C14.8118 14.1815 15.2452 13.9846 15.6391 13.827L21.1935 20.0117C21.5875 19.6572 22.0208 19.3027 22.4935 18.9481L18.0815 12.921Z" fill="#D9D9D9" transform="matrix(1 0 -0 1.00424 189 510.072)"/><path d="M13.1573 15.0482 13.1573 15.0482 8.15439 10.518C7.05138 11.7392 6.02715 13.0785 5.12111 14.4573L9.65133 17.4118C10.0059 17.0966 10.3998 16.8209 10.7937 16.5451L18.9481 22.4541C19.2633 22.0208 19.6178 21.5875 20.0117 21.1541L13.1573 15.0482Z" fill="#D9D9D9" transform="matrix(1 0 -0 1.00424 189 510.072)"/><path d="M8.58771 18.3966 4.25446 15.9148C3.42721 17.333 2.71813 18.8299 2.08784 20.4057L5.59383 21.745C5.90897 21.3511 6.18473 20.9572 6.53927 20.5632L17.2542 25.3298C17.3724 25.0934 17.4906 24.8177 17.6481 24.5813 17.7663 24.345 17.9239 24.1086 18.0421 23.8723L8.58771 18.3966Z" fill="#D9D9D9" transform="matrix(1 0 -0 1.00424 189 510.072)"/><path d="M38.3689 0.906043C37.8568 0.74847 37.3053 0.630291 36.7538 0.512111 35.6902 0.275752 34.5872 0.11818 33.4448 0.0393932L32.7357 13.2361C33.0509 13.3543 33.366 13.4725 33.6812 13.5906L33.4448 15.9542C33.9963 15.9936 34.5478 16.1118 35.0993 16.23L35.4932 14.3785 38.3689 0.906043Z" fill="#D9D9D9" transform="matrix(1 0 -0 1.00424 189 510.072)"/><path d="M18.0421 23.8723 18.0421 23.8723C17.8845 24.1086 17.7663 24.345 17.6481 24.6207L17.6481 24.6207C17.7663 24.345 17.8845 24.1086 18.0421 23.8723" fill="#D9D9D9" transform="matrix(1 0 -0 1.00424 189 510.072)"/><path d="M16.5845 26.8661 16.5845 26.8661 4.76657 23.045 1.53633 22.0208C1.02422 23.5965 0.630291 25.2116 0.393932 26.8661L2.67874 27.1813C2.8757 26.7086 3.07267 26.1965 3.30903 25.7237L16.033 28.4419C16.1118 28.1661 16.23 27.8904 16.3088 27.654L16.5057 27.6934C16.5845 27.4176 16.6633 27.1419 16.7421 26.9055L16.5845 26.8661Z" fill="#D9D9D9" transform="matrix(1 0 -0 1.00424 189 510.072)"/><path d="M15.5209 30.0964 2.12723 28.6782 0.157573 28.4813C0.0393932 29.5843 0 30.6873 0 31.8297 0 32.3812 0 32.9327 0.0393932 33.4842L1.1818 33.4054C1.22119 32.8539 1.29997 32.3418 1.37876 31.7903L15.1664 31.7903C15.2058 31.5145 15.2845 31.1994 15.3239 30.9236L15.9148 30.963C15.9148 30.6873 15.9542 30.4115 15.9936 30.1358L15.5209 30.0964Z" fill="#D9D9D9" transform="matrix(1 0 -0 1.00424 189 510.072)"/><path d="M15.9936 33.4842 14.93 33.6024 1.06362 35.0599 0.157573 35.1387C0.315145 36.8326 0.630291 38.4477 1.06362 40.0628L1.41815 39.9841C1.33937 39.4326 1.26058 38.8811 1.1818 38.3689L14.8512 35.4538C14.8512 35.1387 14.8512 34.8236 14.8906 34.5478L16.1118 34.3508C16.0724 34.0357 16.033 33.7599 15.9936 33.4842" fill="#D9D9D9" transform="matrix(1 0 -0 1.00424 189 510.072)"/><path d="M14.9694 38.2902 16.9785 37.5417C16.8603 37.2659 16.7815 37.0296 16.7027 36.7538L14.8906 37.3447 1.77269 41.5598 1.57573 41.6386C1.93027 42.7022 2.3242 43.7264 2.75752 44.7506L2.79691 44.7112 15.0876 39.2356C15.0482 38.9204 15.0088 38.6053 14.9694 38.2902" fill="#D9D9D9" transform="matrix(1 0 -0 1.00424 189 510.072)"/><path d="M18.4754 40.4568C18.3178 40.2204 18.1602 39.9841 18.0421 39.7477L15.4815 41.2446 4.25446 47.7051 4.25446 47.7051 4.25446 47.7051C4.80597 48.6506 5.43626 49.596 6.06655 50.502L16.033 43.2537C15.9148 42.8992 15.8361 42.584 15.7179 42.2295L18.4754 40.4568Z" fill="#D9D9D9" transform="matrix(1 0 -0 1.00424 189 510.072)"/><path d="M20.5632 43.0567C20.3663 42.8598 20.1693 42.6628 19.9723 42.4658L16.8209 45.3021 8.15439 53.102C8.90286 53.9292 9.69072 54.7171 10.518 55.4656L17.8057 47.3506C17.6087 47.0354 17.4512 46.6809 17.2936 46.3264L20.5632 43.0567Z" fill="#D9D9D9" transform="matrix(1 0 -0 1.00424 189 510.072)"/><path d="M23.1632 45.1446C22.9268 44.987 22.6905 44.8294 22.4935 44.6719L19.1057 49.3596 13.1573 57.5534C14.0634 58.2231 14.9694 58.814 15.9542 59.3655L20.6026 51.2899C20.3269 50.9748 20.0905 50.6596 19.8148 50.3445L23.1632 45.1446Z" fill="#D9D9D9" transform="matrix(1 0 -0 1.00424 189 510.072)"/><path d="M26.1177 46.6809C25.8419 46.5627 25.6056 46.4839 25.3298 46.3658L22.2965 53.1808 18.8693 60.9018C19.8935 61.3352 20.9178 61.7685 21.9814 62.0836L24.345 54.8353C23.9904 54.5595 23.6359 54.2838 23.3208 54.008L26.1177 46.6809Z" fill="#D9D9D9" transform="matrix(1 0 -0 1.00424 189 510.072)"/><path d="M29.3085 47.5082C29.0328 47.4688 28.757 47.4294 28.4813 47.3506L26.5904 56.3322 25.2116 62.9503C26.2752 63.1866 27.3783 63.3442 28.4813 63.4624L29.1115 57.6322C28.6782 57.4352 28.2449 57.2383 27.851 57.0413L29.3085 47.5082Z" fill="#D9D9D9" transform="matrix(1 0 -0 1.00424 189 510.072)"/><path d="M34.7054 59.3261C34.2327 59.2473 33.7206 59.1291 33.2478 59.011L32.6569 47.7445 32.6569 47.7445 32.6569 47.7051 32.6569 47.7051C32.3812 47.7051 32.1054 47.7445 31.8297 47.7445L31.8297 47.7445 31.8297 58.6564 31.8297 63.6594 31.8297 63.6594C32.9327 63.6594 34.0751 63.62 35.1387 63.5018L34.7054 59.3261Z" fill="#D9D9D9" transform="matrix(1 0 -0 1.00424 189 510.072)"/><path d="M40.8113 59.5625C40.2992 59.6019 39.7871 59.6413 39.2356 59.6413L36.0054 47.5476C36.5963 47.4688 37.1478 47.3506 37.6993 47.2324L37.6205 46.996 37.5023 46.6415C36.7144 46.9567 35.9266 47.193 35.0993 47.3506L35.1387 47.4688 35.1781 47.6263 37.7387 59.6019 38.4477 62.9109C39.5507 62.6745 40.6144 62.3988 41.678 62.0442L40.8113 59.5625Z" fill="#D9D9D9" transform="matrix(1 0 -0 1.00424 189 510.072)"/><path d="M47.0354 58.1443C46.5233 58.3413 46.0112 58.4989 45.4991 58.6564L39.4326 46.7597C40.0235 46.5627 40.575 46.3658 41.1265 46.1294L40.9689 45.893 40.4962 45.1446C39.7871 45.5779 39.078 46.0112 38.2902 46.3264L38.4871 46.7597 38.6053 46.996 43.9628 59.0504 44.7506 60.8624C45.7749 60.3897 46.7597 59.917 47.7051 59.3655L47.0354 58.1443Z" fill="#D9D9D9" transform="matrix(1 0 -0 1.00424 189 510.072)"/><path d="M52.7474 55.0716C52.3141 55.3868 51.8414 55.7019 51.3687 55.9777L42.781 45.3415C43.3325 45.0658 43.884 44.7506 44.4355 44.3961L44.2385 44.1991 43.0567 43.0173C42.4658 43.6082 41.8355 44.1597 41.1659 44.6325L41.7961 45.4991 41.9537 45.7355 49.9899 56.7656 50.502 57.514C51.4081 56.8443 52.2747 56.1747 53.102 55.4262L52.7474 55.0716Z" fill="#D9D9D9" transform="matrix(1 0 -0 1.00424 189 510.072)"/><path d="M56.4504 51.7626 46.0506 43.3325C46.6021 42.9385 47.1142 42.5052 47.5869 42.0719L47.39 41.9537 45.1446 40.4962C44.6719 41.2052 44.1991 41.8749 43.6082 42.4658L45.0264 43.7264 45.2234 43.9234 55.2686 52.9838 55.4262 53.1414C55.7807 52.7474 56.1747 52.3141 56.5292 51.8808L56.4504 51.7626Z" fill="#D9D9D9" transform="matrix(1 0 -0 1.00424 189 510.072)"/><path d="M49.0839 40.6144C49.5566 40.1022 50.0293 39.5507 50.4626 38.9992L50.3051 38.9598 46.6415 37.5417C46.3264 38.3296 45.9718 39.078 45.5779 39.7871L48.1384 41.284 48.3354 41.4022 59.3655 47.7839 59.3655 47.7839C59.6413 47.3112 59.917 46.7991 60.1534 46.3264L49.0839 40.6144Z" fill="#D9D9D9" transform="matrix(1 0 -0 1.00424 189 510.072)"/><path d="M51.7626 37.1478C52.1959 36.5175 52.5505 35.8478 52.905 35.1387L52.8262 35.1387 47.5082 34.3114C47.39 35.1387 47.193 35.966 46.9173 36.7538L50.9748 38.0538 51.0929 38.0932 62.0442 41.6386C62.2018 41.1265 62.3594 40.575 62.517 40.0235L51.7626 37.1478Z" fill="#D9D9D9" transform="matrix(1 0 -0 1.00424 189 510.072)"/><path d="M53.8899 32.9721C54.205 32.1842 54.4808 31.4357 54.7171 30.6085L54.7171 30.6085 47.7051 30.963C47.7051 31.2388 47.7445 31.5145 47.7445 31.7903 47.7445 32.3418 47.7051 32.8933 47.6657 33.4448L53.4171 34.0357 53.4565 34.0357 63.5018 35.0993C63.5412 34.5478 63.5806 33.9963 63.62 33.4448L53.8899 32.9721Z" fill="#D9D9D9" transform="matrix(1 0 -0 1.00424 189 510.072)"/><path d="M63.226 26.8267 55.308 28.0873C55.4656 27.2207 55.5838 26.3146 55.6231 25.448L47.193 27.6934C47.39 28.4813 47.5476 29.3085 47.6263 30.1358L55.0322 29.3479 55.0322 29.3479 63.4624 28.4813C63.3836 27.9298 63.3048 27.3783 63.226 26.8267" fill="#D9D9D9" transform="matrix(1 0 -0 1.00424 189 510.072)"/><path d="M61.5321 20.4057 55.6625 22.6511C55.6231 21.7056 55.505 20.7602 55.3474 19.8148L46.0112 24.5813C46.4052 25.3298 46.7203 26.0783 46.9567 26.9055L55.7019 24.0692 62.123 21.9814C61.8867 21.4693 61.7291 20.9178 61.5321 20.4057" fill="#D9D9D9" transform="matrix(1 0 -0 1.00424 189 510.072)"/><path d="M54.3232 9.33618 52.1959 11.4634C51.6444 10.5574 51.0535 9.73011 50.3839 8.90286L42.0325 19.1845C42.2295 19.3814 42.4264 19.5784 42.6234 19.8148L42.4264 20.0117C42.8204 20.3663 43.2143 20.7602 43.6082 21.1935L43.687 21.1147 52.905 12.8028 55.4262 10.5574C55.0716 10.124 54.7171 9.69072 54.3232 9.33618" fill="#D9D9D9" transform="matrix(1 0 -0 1.00424 189 510.072)"/><path d="M50.502 6.06655C50.0687 5.7514 49.596 5.43626 49.1233 5.12111L48.2172 6.53927C47.4294 5.7908 46.6021 5.12111 45.7355 4.49082L39.4326 16.8603C39.6689 17.0572 39.9053 17.2148 40.1416 17.4118L39.7871 18.0421C40.2598 18.3178 40.7325 18.633 41.1659 18.9481L41.4416 18.5542 49.3596 7.68167 50.502 6.06655Z" fill="#D9D9D9" transform="matrix(1 0 -0 1.00424 189 510.072)"/><path d="M44.7506 2.75752C44.2385 2.52116 43.7264 2.3242 43.2143 2.12723L42.9779 2.75752C41.9931 2.24541 41.0083 1.81209 39.9841 1.41815L36.3993 14.8512C36.675 15.0088 36.9508 15.1664 37.2265 15.3239L36.7932 16.7027C37.3053 16.8603 37.8568 17.0572 38.3296 17.2936L38.7629 16.3088 44.4355 3.58478 44.7506 2.75752Z" fill="#D9D9D9" transform="matrix(1 0 -0 1.00424 189 510.072)"/><path d="M58.4989 14.4967 54.6777 16.9785C54.402 15.9936 54.0474 15.0876 53.6141 14.1421L44.2385 21.745 44.2385 21.745 44.2385 21.745 44.1991 21.7844C44.3961 22.0602 44.5537 22.2965 44.6719 22.4541L44.6719 22.4541C44.987 22.8874 45.3021 23.3601 45.5779 23.8329L55.0322 18.3572 59.3655 15.8754C59.0897 15.4027 58.814 14.9694 58.4989 14.4967" fill="#D9D9D9" transform="matrix(1 0 -0 1.00424 189 510.072)"/><path d="M188.555 3.84083 188.555 59.9367" stroke="#707C7C" stroke-width="0.393932" stroke-miterlimit="10" fill="none" transform="matrix(1 0 -0 1.00424 189 510.072)"/><text fill="#D9D9D9" font-family="Arial,Arial_MSFontService,sans-serif" font-weight="400" font-size="73" transform="matrix(0.393932 0 0 0.3956 388.991 551)">Saudi Ground Services</text></g></g></g></g></svg>